<svg id="curve" xmlns="http://www.w3.org/2000/svg" viewBox="0 0 1440 320">
                    <path fill="#69BA84" fill-opacity="1"
                        d="M0,128L40,117.3C80,107,160,85,240,74.7C320,64,400,64,480,53.3C560,43,640,21,720,26.7C800,32,880,64,960,69.3C1040,75,1120,53,1200,37.3C1280,21,1360,11,1400,5.3L1440,0L1440,320L1400,320C1360,320,1280,320,1200,320C1120,320,1040,320,960,320C880,320,800,320,720,320C640,320,560,320,480,320C400,320,320,320,240,320C160,320,80,320,40,320L0,320Z">
                    </path>
                </svg>